Coordinates
version=1
nRows=18
nColumns=32
inDegrees=yes

Units are S.I. units (second, meters, Newtons, ...)
If the header above contains a line with 'inDegrees', this indicates whether rotational values are in degrees (yes) or radians (no).

endheader
time	pelvis_tilt	pelvis_list	pelvis_rotation	pelvis_tx	pelvis_ty	pelvis_tz	hip_flexion_r	hip_adduction_r	hip_rotation_r	knee_angle_r	knee_adduction_r	med_cond_adduction_r	lat_cond_adduction_r	patella_r_constrained_knee_angle	ankle_angle_r	subtalar_angle_r	mtp_angle_r	hip_flexion_l	hip_adduction_l	hip_rotation_l	knee_angle_l	knee_adduction_l	med_cond_adduction_l	lat_cond_adduction_l	patella_l_constrained_knee_angle	ankle_angle_l	subtalar_angle_l	mtp_angle_l	lumbar_extension	lumbar_bending	lumbar_rotation
      0.67916667	     28.26498942	      1.23008115	     99.55221488	      0.45697376	      1.11293418	     -2.11243226	      3.26906901	     29.78478072	      8.57598819	    -27.44855108	      0.00000000	      0.00000000	     -0.00000000	     -0.47906759	    -11.34252310	      7.31104873	     -0.00000000	    -15.49983125	    -31.69138040	      5.51240051	    -10.90551583	     -0.00000000	      0.00000000	     -0.00000000	     -0.19033716	    -16.53836479	     10.76836998	     -0.00000000	     -0.00000000	      0.00000000	      0.00000000
      0.68333333	     28.01066101	     -0.16500193	     99.01338193	      0.46119960	      1.11396489	     -2.12406655	      4.80545303	     29.79740748	     11.08736547	    -25.65240887	      0.00000000	     -0.00000000	      0.00000000	     -0.44771900	    -12.50213795	      3.69509953	      0.00000000	    -14.88010726	    -31.31213268	      5.01933920	    -10.66889742	     -0.00000000	      0.00000000	     -0.00000000	     -0.18620739	    -18.43257752	     10.90996757	     -0.00000000	     -0.00000000	      0.00000000	      0.00000000
      0.68750000	     27.73677930	     -1.43329401	     98.43672621	      0.46535640	      1.11491923	     -2.13591270	      6.13094561	     29.80135864	     13.68256868	    -23.81288421	      0.00000000	      0.00000000	     -0.00000000	     -0.41561323	    -14.02433011	     -0.28527744	      0.00000000	    -14.40117240	    -30.95302693	      4.38644767	    -10.46676992	     -0.00000000	      0.00000000	     -0.00000000	     -0.18267960	    -20.25015397	     11.23146948	     -0.00000000	     -0.00000000	      0.00000000	      0.00000000
      0.69166667	     27.45922219	     -2.57956735	     97.87585323	      0.46938216	      1.11572673	     -2.14785022	      7.29761410	     29.79721962	     16.23662640	    -21.91421494	      0.00000000	      0.00000000	     -0.00000000	     -0.38247520	    -15.93574811	     -4.62469465	      0.00000000	    -14.04925485	    -30.62639156	      3.72613644	    -10.26512434	      0.00000000	     -0.00000000	      0.00000000	     -0.17916022	    -22.04943440	     11.58620130	     -0.00000000	     -0.00000000	      0.00000000	      0.00000000
      0.69583333	     27.20674402	     -3.63129690	     97.34111629	      0.47320180	      1.11632154	     -2.15991839	      8.35984040	     29.78418595	     18.71240665	    -20.01520629	      0.00000000	      0.00000000	     -0.00000000	     -0.34933125	    -18.13628941	     -9.02756478	      0.00000000	    -13.77476178	    -30.35413816	      3.06107384	    -10.10453759	     -0.00000000	     -0.00000000	      0.00000000	     -0.17635745	    -23.61857768	     11.97183917	     -0.00000000	     -0.00000000	      0.00000000	      0.00000000
      0.70000000	     26.97057818	     -4.54089547	     96.79734794	      0.47676082	      1.11678715	     -2.17204886	      9.29390633	     29.75533733	     21.06053022	    -18.20599422	      0.00000000	     -0.00000000	      0.00000000	     -0.31775454	    -20.49195155	    -13.23923304	     -0.00000000	    -13.66421882	    -30.11593700	      2.32940019	     -9.96694297	      0.00000000	     -0.00000000	      0.00000000	     -0.17395597	    -25.03263176	     12.48104323	      0.00000000	     -0.00000000	     -0.00000000	      0.00000000
      0.70416667	     26.74095057	     -5.33133516	     96.23167472	      0.48008224	      1.11712492	     -2.18443550	     10.09863781	     29.69577930	     23.31222830	    -16.48476467	      0.00000000	      0.00000000	     -0.00000000	     -0.28771342	    -22.69942653	    -16.93665292	      0.00000000	    -13.71696743	    -29.88864317	      1.49925272	     -9.83285512	      0.00000000	      0.00000000	     -0.00000000	     -0.17161570	    -26.27342820	     12.95410239	      0.00000000	      0.00000000	     -0.00000000	      0.00000000
      0.70833333	     26.51036287	     -6.10023785	     95.60892075	      0.48313504	      1.11722828	     -2.19677621	     10.99590997	     29.56168175	     25.28688660	    -15.15104674	      0.00000000	      0.00000000	     -0.00000000	     -0.26443565	    -23.87083416	    -18.69925347	      0.00000000	    -13.83491075	    -29.62817193	      0.64604917	     -9.73430172	      0.00000000	      0.00000000	     -0.00000000	     -0.16989562	    -27.12009521	     13.36201009	     -0.00000000	      0.00000000	     -0.00000000	      0.00000000
      0.71250000	     26.14153828	     -6.85169042	     94.97756992	      0.48577267	      1.11723411	     -2.20935996	     11.90519330	     29.23843296	     26.93476307	    -13.99629856	     -0.00000000	     -0.00000000	      0.00000000	     -0.24428149	    -24.46286495	    -19.31232120	      0.00000000	    -13.93744664	    -29.20034981	     -0.26175496	     -9.69920130	     -0.00000000	     -0.00000000	      0.00000000	     -0.16928300	    -27.76654996	     13.76060884	     -0.00000000	      0.00000000	     -0.00000000	      0.00000000
      0.71666667	     25.45678080	     -7.62980769	     94.31903148	      0.48824353	      1.11725055	     -2.22174448	     12.86856313	     28.57757116	     28.51019117	    -13.01531761	      0.00000000	     -0.00000000	      0.00000000	     -0.22716015	    -24.58470339	    -19.53520483	      0.00000000	    -13.95599326	    -28.41269649	     -0.89493083	     -9.68679288	      0.00000000	     -0.00000000	      0.00000000	     -0.16906643	    -28.28535923	     13.83459892	     -0.00000000	      0.00000000	     -0.00000000	      0.00000000
      0.72083333	     24.47319073	     -8.35852718	     93.66241439	      0.49044116	      1.11731034	     -2.23414016	     13.78258639	     27.61453189	     29.94623710	    -12.11056012	     -0.00000000	      0.00000000	     -0.00000000	     -0.21136915	    -24.52858161	    -19.65200416	     -0.00000000	    -13.94971628	    -27.29471956	     -1.28830033	     -9.69779453	     -0.00000000	     -0.00000000	      0.00000000	     -0.16925844	    -28.61145840	     13.66255612	     -0.00000000	      0.00000000	      0.00000000	      0.00000000
      0.72500000	     23.35678901	     -9.12992811	     93.04144872	      0.49260377	      1.11719183	     -2.24667441	     14.79353403	     26.52679294	     31.27189559	    -11.38586473	      0.00000000	      0.00000000	     -0.00000000	     -0.19872083	    -24.33942508	    -19.71950732	      0.00000000	    -13.82472658	    -26.05228573	     -1.52313620	     -9.72818491	     -0.00000000	      0.00000000	     -0.00000000	     -0.16978886	    -28.91068836	     13.40157456	      0.00000000	      0.00000000	      0.00000000	      0.00000000
      0.72916667	     22.17913464	     -9.80898667	     92.38720967	      0.49455737	      1.11698802	     -2.25898620	     15.74493580	     25.39664526	     32.53693068	    -10.69718729	      0.00000000	     -0.00000000	      0.00000000	     -0.18670114	    -24.09813744	    -19.76544844	      0.00000000	    -13.74847783	    -24.73226228	     -1.70066476	     -9.81872983	     -0.00000000	     -0.00000000	      0.00000000	     -0.17136916	    -29.22829878	     12.87956604	      0.00000000	     -0.00000000	      0.00000000	      0.00000000
      0.73333333	     20.88828465	    -10.41732422	     91.67398813	      0.49629422	      1.11675371	     -2.27123171	     16.63620777	     24.17395132	     33.79022432	    -10.05375075	      0.00000000	      0.00000000	     -0.00000000	     -0.17547105	    -23.79120596	    -19.79771350	      0.00000000	    -13.73537656	    -23.26334674	     -1.71644375	     -9.96103390	     -0.00000000	      0.00000000	     -0.00000000	     -0.17385284	    -29.58267086	     12.24146147	     -0.00000000	     -0.00000000	      0.00000000	      0.00000000
      0.73750000	     19.58913582	    -11.02411883	     91.00736030	      0.49796345	      1.11629314	     -2.28387244	     17.54783411	     22.95038218	     34.94524647	     -9.46895671	      0.00000000	     -0.00000000	      0.00000000	     -0.16526447	    -23.36536385	    -19.82272589	     -0.00000000	    -13.68762401	    -21.78374425	     -1.65239153	    -10.15717135	     -0.00000000	      0.00000000	     -0.00000000	     -0.17727608	    -29.94112562	     11.52431415	      0.00000000	     -0.00000000	      0.00000000	      0.00000000
      0.74166667	     18.27187962	    -11.55512206	     90.30250207	      0.49943025	      1.11578320	     -2.29624019	     18.41567577	     21.72685460	     36.08944663	     -8.90763711	      0.00000000	      0.00000000	     -0.00000000	     -0.15546760	    -23.09051372	    -19.84025758	     -0.00000000	    -13.70293927	    -20.26673217	     -1.43471525	    -10.34914585	     -0.00000000	      0.00000000	     -0.00000000	     -0.18062667	    -30.10258356	     10.74140448	      0.00000000	     -0.00000000	      0.00000000	      0.00000000
      0.74583333	     16.96482635	    -12.04994773	     89.64534668	      0.50081760	      1.11510654	     -2.30881904	     19.27361362	     20.52140397	     37.13039725	     -8.38391691	     -0.00000000	      0.00000000	     -0.00000000	     -0.14632695	    -22.70710618	    -19.85517804	      0.00000000	    -13.73410168	    -18.76598379	     -1.10148703	    -10.54920406	     -0.00000000	     -0.00000000	      0.00000000	     -0.18411834	    -30.10702971	      9.91798429	     -0.00000000	     -0.00000000	      0.00000000	      0.00000000
      0.75000000	     15.69864165	    -12.49058824	     89.02029471	      0.50212499	      1.11430829	     -2.32151582	     20.09481367	     19.36050492	     38.08993513	     -7.87238481	      0.00000000	      0.00000000	     -0.00000000	     -0.13739903	    -22.32779131	    -19.86699724	      0.00000000	    -13.80946050	    -17.31253156	     -0.69402491	    -10.75187199	      0.00000000	      0.00000000	     -0.00000000	     -0.18765557	    -30.04295080	      9.06918409	     -0.00000000	     -0.00000000	      0.00000000	      0.00000000
